#!OML:ASF I:\Actors\actors\Patient Classification 2\Patient 1\Session 1\actor1.ASF
:FULLY-SPECIFIED
:DEGREES
941
root -0.999794 18.57 6.08984 -2.78608 1.93813 -6.57131
lowerback 0.769327 -0.0915525 3.35698
upperback -4.89455 0.107313 2.17302
thorax -5.50127 -0.0414018 0.368359
lowerneck -11.1324 -1.94944 0.171853
upperneck 20.4105 -3.13525 1.77547
head 8.18534 -1.30069 0.238843
rclavicle -7.45443e-016 8.05078e-015
rhumerus -67.5617 -32.1847 -32.4213
rradius 66.7284
rwrist -10.2985
rhand 4.45314 -33.7171
rfingers 7.12502
rthumb 29.8482 -61.3317
lclavicle -7.45443e-016 8.05078e-015
lhumerus -53.1772 14.1051 56.3957
lradius 72.9012
lwrist 30.1316
lhand -13.3982 -18.4393
lfingers 7.12502
lthumb 12.7094 11.1539
rfemur 13.3194 -3.92893 20.8935
rtibia 6.36111e-015
rfoot -16.2413 -6.29333
rtoes -6.95126
lfemur -1.54035 -9.26563 -7.1603
ltibia 24.765
lfoot -24.676 11.8563
ltoes -56.8453
942
root -1.00274 18.5675 6.09106 -2.79217 1.83762 -6.6112
lowerback 0.539188 -0.0194385 3.20211
upperback -4.9549 0.19054 2.21075
thorax -5.43135 0.00821129 0.489305
lowerneck -10.83 -2.00146 0.0821179
upperneck 20.358 -3.3162 2.37858
head 8.12769 -1.33706 0.438783
rclavicle 6.4605e-015 8.94531e-015
rhumerus -68.3819 -33.3251 -32.7661
rradius 65.1505
rwrist -10.6496
rhand 4.20654 -33.3637
rfingers 7.12502
rthumb 29.6129 -61.0204
lclavicle 6.4605e-015 8.94531e-015
lhumerus -53.3939 14.8403 58.3793
lradius 71.4039
lwrist 30.3093
lhand -15.1142 -18.3825
lfingers 7.12502
lthumb 11.0546 11.3064
rfemur 13.3268 -3.8328 20.9506
rtibia 3.18055e-015
rfoot -16.2441 -6.20277
rtoes -6.66769
lfemur -1.46186 -9.49396 -7.16055
ltibia 24.7363
lfoot -24.8715 12.028
ltoes -56.6529
943
root -1.00736 18.5648 6.08923 -2.79701 1.74667 -6.72125
lowerback 0.379062 0.0385924 3.13644
upperback -5.00634 0.261246 2.24026
thorax -5.39301 0.047134 0.553076
lowerneck -10.5578 -2.04315 0.115716
upperneck 20.2328 -3.48169 2.88149
head 8.0484 -1.36845 0.586157
rclavicle 4.07509e-015 7.05686e-015
rhumerus -69.0984 -34.4917 -33.1542
rradius 63.2359
rwrist -10.9722
rhand 4.84372 -32.667
rfingers 7.12502
rthumb 30.2209 -60.214
lclavicle 4.07509e-015 7.05686e-015
lhumerus -53.6309 15.378 60.4186
lradius 69.9956
lwrist 31.1643
lhand -16.6837 -17.6803
lfingers 7.12502
lthumb 9.54055 12.0837
rfemur 13.3251 -3.75039 21.0822
rtibia -4.29375e-014
rfoot -16.2728 -5.99779
rtoes -5.74365
lfemur -1.43565 -9.64714 -7.05038
ltibia 24.7325
lfoot -24.9654 12.1522
ltoes -56.5906
944
root -1.01191 18.5622 6.08732 -2.84019 1.65374 -6.8394
lowerback 0.259629 0.076743 3.12956
upperback -5.01754 0.306722 2.24528
thorax -5.33589 0.0706502 0.559811
lowerneck -10.3156 -2.08484 0.311082
upperneck 20.0682 -3.63055 3.17781
head 7.95527 -1.40132 0.639466
rclavicle 3.55328e-015 1.78906e-014
rhumerus -69.6614 -35.5914 -33.6724
rradius 61.0643
rwrist -11.0705
rhand 4.90973 -32.3109
rfingers 7.12502
rthumb 30.2839 -59.8464
lclavicle 3.55328e-015 1.78906e-014
lhumerus -53.8449 16.0008 62.3898
lradius 68.6092
lwrist 32.3936
lhand -18.0219 -16.4698
lfingers 7.12502
lthumb 8.24922 13.3492
rfemur 13.3534 -3.66792 21.2235
rtibia 2.38542e-014
rfoot -16.2745 -5.87403
rtoes -5.42043
lfemur -1.37559 -9.72341 -6.92548
ltibia 24.7459
lfoot -25.04 12.2213
ltoes -56.5579
945
root -1.01493 18.5606 6.08553 -2.89611 1.53655 -6.88425
lowerback 0.121874 0.112109 3.05245
upperback -4.96615 0.343024 2.25083
thorax -5.20251 0.0937657 0.606405
lowerneck -10.1947 -2.11849 0.400971
upperneck 19.953 -3.76132 3.52662
head 7.90366 -1.42693 0.728045
rclavicle 3.00662e-015 -4.77083e-015
rhumerus -70.0217 -36.5601 -34.3901
rradius 58.8391
rwrist -11.0138
rhand 4.14664 -32.3792
rfingers 7.12502
rthumb 29.5557 -60.046
lclavicle 3.00662e-015 -4.77083e-015
lhumerus -53.9859 16.824 64.2386
lradius 66.8243
lwrist 32.8976
lhand -18.6783 -15.8924
lfingers 7.12502
lthumb 7.6157 13.9504
rfemur 13.3925 -3.55763 21.2894
rtibia -1.74931e-014
rfoot -16.2398 -5.86616
rtoes -5.76558
lfemur -1.28607 -9.70258 -6.88615
ltibia 24.7629
lfoot -25.0904 12.2832
ltoes -56.5584
946
root -1.01666 18.5595 6.08279 -2.95985 1.38162 -6.85669
lowerback -0.0704223 0.172008 2.88771
upperback -4.8204 0.404819 2.2799
thorax -4.93917 0.135329 0.724811
lowerneck -10.1814 -2.15994 0.307833
upperneck 19.8125 -3.89521 4.00381
head 7.86979 -1.45489 0.887837
rclavicle 8.94531e-015 6.75868e-015
rhumerus -70.0572 -36.5949 -36.1383
rradius 57.2082
rwrist -11.8162
rhand 2.83734 -32.6068
rfingers 7.12502
rthumb 28.3051 -60.4879
lclavicle 8.94531e-015 6.75868e-015
lhumerus -53.9218 17.6837 66.1278
lradius 64.5308
lwrist 32.6066
lhand -18.6913 -15.9422
lfingers 7.12502
lthumb 7.60313 13.9011
rfemur 13.4438 -3.40487 21.2766
rtibia -5.08889e-014
rfoot -16.2073 -5.86323
rtoes -5.84584
lfemur -1.16398 -9.70977 -6.95475
ltibia 24.7703
lfoot -25.1271 12.421
ltoes -56.547
947
root -1.0182 18.5581 6.07736 -3.05473 1.22931 -6.86716
lowerback -0.27585 0.234994 2.7556
upperback -4.57729 0.469546 2.34388
thorax -4.56768 0.17849 0.861103
lowerneck -10.258 -2.21187 0.204694
upperneck 19.5922 -4.02808 4.43338
head 7.82562 -1.48832 1.03247
rclavicle -5.81445e-015 3.18055e-015
rhumerus -69.6619 -37.7024 -36.8535
rradius 54.1611
rwrist -11.1724
rhand 2.2774 -32.2647
rfingers 7.12502
rthumb 27.7699 -60.2334
lclavicle -5.81445e-015 3.18055e-015
lhumerus -53.6358 18.4181 68.0451
lradius 61.7661
lwrist 31.5318
lhand -18.1957 -16.4879
lfingers 7.12502
lthumb 8.08145 13.3376
rfemur 13.519 -3.25895 21.309
rtibia -4.29375e-014
rfoot -16.1525 -5.91084
rtoes -5.91943
lfemur -1.01855 -9.69039 -6.97137
ltibia 24.7569
lfoot -25.1316 12.4326
ltoes -56.3758
948
root -1.01918 18.5568 6.06865 -3.18221 1.08638 -6.95663
lowerback -0.38257 0.272001 2.7741
upperback -4.32235 0.506612 2.39241
thorax -4.24062 0.20087 0.898584
lowerneck -10.3777 -2.24275 0.210603
upperneck 19.3692 -4.12275 4.72504
head 7.78294 -1.50838 1.11659
rclavicle -7.15625e-015 4.37326e-015
rhumerus -69.0381 -38.6381 -37.7975
rradius 50.9495
rwrist -10.3493
rhand 2.25219 -31.9032
rfingers 7.12502
rthumb 27.7458 -59.8758
lclavicle -7.15625e-015 4.37326e-015
lhumerus -53.2966 18.9928 69.7104
lradius 58.5031
lwrist 29.4728
lhand -16.8662 -18.1347
lfingers 7.12502
lthumb 9.36447 11.6372
rfemur 13.6084 -3.12972 21.4304
rtibia 2.22639e-014
rfoot -16.0664 -6.01633
rtoes -6.19207
lfemur -0.857373 -9.51125 -6.85778
ltibia 24.7204
lfoot -25.0843 12.3224
ltoes -56.2684
949
root -1.0194 18.5555 6.05878 -3.33743 0.891844 -7.01622
lowerback -0.374246 0.295645 2.83506
upperback -4.09956 0.531511 2.40225
thorax -4.01249 0.213972 0.872872
lowerneck -10.4415 -2.24508 0.277994
upperneck 19.2025 -4.17517 4.94126
head 7.74506 -1.51095 1.17036
rclavicle -1.40143e-014 -5.76476e-015
rhumerus -68.2218 -38.8668 -39.5255
rradius 48.1732
rwrist -9.79254
rhand 2.56326 -31.6462
rfingers 7.12502
rthumb 28.0431 -59.5705
lclavicle -1.40143e-014 -5.76476e-015
lhumerus -52.8804 18.9834 71.8418
lradius 56.355
lwrist 30.377
lhand -17.1477 -16.5589
lfingers 7.12502
lthumb 9.0928 13.2251
rfemur 13.7126 -2.94713 21.5164
rtibia -2.70347e-014
rfoot -15.9854 -6.13832
rtoes -6.48854
lfemur -0.642411 -9.25761 -6.78033
ltibia 24.6639
lfoot -25.0093 12.256
ltoes -56.3159
950
root -1.0197 18.5527 6.04772 -3.53253 0.696162 -7.00392
lowerback -0.249541 0.312378 2.82058
upperback -3.89205 0.551445 2.40405
thorax -3.86693 0.226409 0.880919
lowerneck -10.4281 -2.26751 0.310386
upperneck 19.0135 -4.24935 5.1763
head 7.68774 -1.52685 1.23466
rclavicle 7.57867e-015 -1.94809e-014
rhumerus -67.2443 -38.6706 -41.6172
rradius 45.591
rwrist -9.03527
rhand 3.53615 -31.4748
rfingers 7.12502
rthumb 28.9728 -59.2433
lclavicle 7.57867e-015 -1.94809e-014
lhumerus -52.4573 19.0817 73.7253
lradius 53.7618
lwrist 30.0386
lhand -16.5838 -15.7895
lfingers 7.12502
lthumb 9.63694 13.9701
rfemur 13.8633 -2.75825 21.517
rtibia 7.95139e-015
rfoot -15.924 -6.25168
rtoes -6.88408
lfemur -0.373507 -9.0659 -6.80693
ltibia 24.5922
lfoot -24.902 12.1953
ltoes -56.2955
951
root -1.02026 18.5492 6.03581 -3.75845 0.524165 -6.95953
lowerback 0.0423658 0.332667 2.80579
upperback -3.72425 0.58443 2.37394
thorax -3.85719 0.243444 0.855228
lowerneck -10.3726 -2.31797 0.315468
upperneck 18.7573 -4.36022 5.4552
head 7.60371 -1.561 1.31447
rclavicle -6.83322e-015 3.18055e-015
rhumerus -66.1702 -37.9686 -44.1965
rradius 43.39
rwrist -8.26396
rhand 3.84505 -32.4053
rfingers 7.12502
rthumb 29.2678 -60.1227
lclavicle -6.83322e-015 3.18055e-015
lhumerus -52.034 19.1229 75.4382
lradius 50.9567
lwrist 28.7242
lhand -15.7347 -15.4172
lfingers 7.12502
lthumb 10.4561 14.3028
rfemur 14.0585 -2.59032 21.4763
rtibia 2.70347e-014
rfoot -15.8313 -6.31805
rtoes -7.18032
lfemur -0.0740036 -8.9485 -6.88187
ltibia 24.5143
lfoot -24.8303 12.1628
ltoes -56.2301
952
root -1.02049 18.5461 6.02324 -3.97305 0.361946 -6.91361
lowerback 0.424253 0.358571 2.83105
upperback -3.58274 0.630177 2.31883
thorax -3.92522 0.264313 0.780348
lowerneck -10.3688 -2.38124 0.247941
upperneck 18.5051 -4.49428 5.82751
head 7.53539 -1.60223 1.43396
rclavicle 3.10601e-015 1.76918e-014
rhumerus -64.9177 -36.7503 -47.3871
rradius 41.6664
rwrist -7.40441
rhand 2.77324 -33.6217
rfingers 7.12502
rthumb 28.2439 -61.513
lclavicle 3.10601e-015 1.76918e-014
lhumerus -51.625 18.9264 77.1106
lradius 48.2222
lwrist 26.8551
lhand -14.7949 -15.2422
lfingers 7.12502
lthumb 11.3626 14.43
rfemur 14.2413 -2.43091 21.4324
rtibia -1.59028e-015
rfoot -15.7274 -6.35571
rtoes -7.40808
lfemur 0.193688 -8.75573 -6.93747
ltibia 24.4498
lfoot -24.7578 12.1058
ltoes -56.2541
953
root -1.02075 18.5425 6.01178 -4.18908 0.300404 -6.89385
lowerback 0.781085 0.358467 2.86524
upperback -3.40128 0.640085 2.29647
thorax -3.93813 0.268374 0.73547
lowerneck -10.4398 -2.45339 0.105942
upperneck 18.2288 -4.62597 6.20273
head 7.47481 -1.64683 1.56588
rclavicle 7.55382e-015 1.53064e-014
rhumerus -63.4382 -34.9559 -51.2054
rradius 40.5435
rwrist -6.35246
rhand 1.79035 -34.9723
rfingers 7.12502
rthumb 27.3041 -63.0152
lclavicle 7.55382e-015 1.53064e-014
lhumerus -51.1134 18.4026 78.9513
lradius 45.59
lwrist 24.6805
lhand -13.6772 -15.4203
lfingers 7.12502
lthumb 12.4404 14.1895
rfemur 14.4439 -2.37373 21.4093
rtibia 1.74931e-014
rfoot -15.7175 -6.36139
rtoes -7.57588
lfemur 0.408546 -8.47813 -6.9227
ltibia 24.4109
lfoot -24.6218 11.8903
ltoes -56.3223
954
root -1.02024 18.5385 6.003 -4.40592 0.301708 -6.90396
lowerback 1.08942 0.34248 2.95753
upperback -3.1714 0.627065 2.28453
thorax -3.87317 0.260447 0.669995
lowerneck -10.5602 -2.5026 -0.00423507
upperneck 17.8943 -4.70861 6.48573
head 7.39993 -1.67501 1.66617
rclavicle 2.30093e-014 1.59028e-015
rhumerus -61.9712 -32.7248 -55.3876
rradius 40.082
rwrist -5.23012
rhand 0.867896 -36.0643
rfingers 7.12502
rthumb 26.4214 -64.2429
lclavicle 2.30093e-014 1.59028e-015
lhumerus -50.4815 17.0127 81.3785
lradius 43.6457
lwrist 23.4942
lhand -13.0522 -14.6936
lfingers 7.12502
lthumb 13.0429 14.8786
rfemur 14.6661 -2.38099 21.4096
rtibia 1.74931e-014
rfoot -15.797 -6.32416
rtoes -7.25814
lfemur 0.598474 -8.24612 -6.87123
ltibia 24.4002
lfoot -24.5144 11.6089
ltoes -56.3452
955
root -1.01652 18.5359 5.99394 -4.53312 0.242051 -6.92085
lowerback 1.28732 0.353502 3.107
upperback -2.90623 0.645707 2.27644
thorax -3.7084 0.268124 0.575721
lowerneck -10.7744 -2.54902 -0.0176918
upperneck 17.5082 -4.76825 6.59557
head 7.31795 -1.70096 1.69473
rclavicle -9.19379e-016 2.44505e-014
rhumerus -60.5831 -30.3885 -59.5631
rradius 40.0258
rwrist -4.01271
rhand 1.04862 -36.1494
rfingers 7.12502
rthumb 26.5944 -64.3019
lclavicle -9.19379e-016 2.44505e-014
lhumerus -49.9225 14.675 84.3391
lradius 42.6459
lwrist 22.8214
lhand -12.4918 -13.006
lfingers 7.12502
lthumb 13.583 16.5309
rfemur 14.7735 -2.3242 21.4172
rtibia 3.18055e-014
rfoot -15.8389 -6.30781
rtoes -7.00333
lfemur 0.709327 -8.04824 -6.83266
ltibia 24.4052
lfoot -24.408 11.4384
ltoes -56.42
